<svg version="1.1" id="Layer_1" xmlns="http://www.w3.org/2000/svg" xmlns:xlink="http://www.w3.org/1999/xlink" x="0px"
	y="0px" width="100%" viewBox="0 0 1024 1024" enable-background="new 0 0 1024 1024" xml:space="preserve">
	<path fill="#1F5545" opacity="1.000000" stroke="none" d="
M549.000122,234.571625 
	C562.826782,234.378036 576.156921,234.904602 589.484070,234.165344 
	C595.837769,233.812927 596.431274,234.415436 596.234131,240.774399 
	C595.898254,251.611206 596.833008,262.010223 603.333435,271.300415 
	C615.084534,288.094635 636.510315,293.602661 654.698853,284.086914 
	C662.046570,280.242798 669.166260,275.962982 676.207458,271.984406 
	C678.679382,273.357941 678.129028,275.380066 678.129700,277.100983 
	C678.155823,347.097107 678.378540,417.094330 678.039612,487.088837 
	C677.884705,519.078857 666.697693,547.657715 648.384827,573.603455 
	C628.131470,602.298645 602.282227,625.166077 573.682739,645.144836 
	C552.050049,660.256714 529.158142,673.182922 505.272491,684.375427 
	C502.313080,685.762207 499.600861,686.478149 496.272339,684.943726 
	C449.679657,663.464294 407.197723,636.017639 371.943176,598.372986 
	C348.316162,573.144226 330.729126,544.458374 324.352814,509.817657 
	C322.864471,501.731995 322.604279,493.613525 322.602692,485.452545 
	C322.589294,416.456360 322.581024,347.460144 322.603973,278.463959 
	C322.604614,276.533020 322.082672,274.477356 323.523987,272.405914 
	C328.049927,273.624268 331.641876,276.693207 335.669159,278.871582 
	C342.689728,282.669037 349.474182,286.768188 357.606232,288.161987 
	C380.234894,292.040588 402.757538,274.365326 403.906982,251.460846 
	C404.123962,247.137436 404.027252,242.797348 404.037811,238.464859 
	C404.044342,235.787796 405.259674,234.471451 408.010101,234.585052 
	C409.839752,234.660614 411.675720,234.573502 413.508881,234.573441 
	C458.505951,234.571854 503.503052,234.572144 549.000122,234.571625 
M581.975769,290.466553 
	C576.879028,283.771790 572.673828,276.523926 570.841675,268.304199 
	C569.723877,263.289734 567.218567,262.286072 562.519836,262.304749 
	C520.866821,262.470459 479.212463,262.475159 437.559570,262.290710 
	C432.879395,262.269989 431.070465,263.709625 429.664215,268.223572 
	C419.378235,301.240692 389.651947,319.386139 357.429230,317.042419 
	C351.024689,316.576599 351.037292,316.307098 351.037476,322.639130 
	C351.038910,376.289001 351.026825,429.938904 351.071716,483.588745 
	C351.076172,488.911926 351.031342,494.285614 351.696808,499.548950 
	C354.388824,520.840637 362.894226,539.868225 375.309021,557.162415 
	C406.701508,600.893066 450.204254,629.431030 497.029694,653.755493 
	C499.174500,654.869629 501.030609,654.602173 503.151245,653.533020 
	C539.368652,635.273315 572.934814,613.230164 601.807617,584.492371 
	C633.399170,553.048523 651.552734,516.544434 649.975464,470.422394 
	C648.342163,422.660004 649.623169,374.797974 649.628601,326.979523 
	C649.628906,324.647003 649.539734,322.311066 649.637268,319.982788 
	C649.757629,317.110565 648.500977,316.134613 645.687439,316.470215 
	C619.966064,319.538330 598.976624,310.782562 581.975769,290.466553 
z" />
	<path fill="#1F5545" opacity="1.000000" stroke="none" d="
M455.724731,497.265900 
	C436.776825,502.794739 421.195862,520.435242 419.760956,538.300232 
	C430.831207,530.712708 442.513763,526.705566 455.788757,529.091675 
	C440.087799,532.778564 427.427063,540.885010 418.198761,554.346436 
	C413.873474,551.596558 410.989868,548.198547 408.348633,544.626404 
	C396.075653,528.028320 390.276886,509.287018 389.615143,488.732025 
	C388.837006,464.561554 394.388916,441.862335 404.798096,420.215027 
	C406.004486,417.706207 406.887238,414.961121 409.705200,412.380249 
	C413.531342,425.579773 419.044342,437.208282 434.065216,442.981384 
	C424.381195,425.991364 419.236115,409.215149 423.743683,390.733246 
	C428.125427,372.767426 437.854156,358.065247 450.841614,344.869385 
	C453.513580,347.471039 453.620728,350.456268 454.639008,352.998505 
	C458.880890,363.588440 463.684204,373.806976 472.785004,381.261261 
	C476.942596,384.666718 477.459503,384.506378 480.092987,379.675232 
	C490.893005,359.862610 493.951965,338.616302 492.215698,316.365784 
	C491.244354,303.918060 490.221436,291.500458 487.763916,279.237915 
	C487.552521,278.183075 487.191376,276.930603 488.591766,275.543762 
	C493.372650,279.033264 497.052856,283.715363 500.899536,288.140472 
	C516.205505,305.747955 529.164001,324.822449 536.691162,347.155823 
	C543.261475,366.650482 545.015198,386.160858 536.627136,405.654236 
	C536.518921,405.905823 536.684814,406.275360 536.815063,407.354126 
	C549.761414,402.490601 557.385620,392.648041 563.433960,380.632507 
	C569.950256,385.178986 574.545654,390.890381 579.008606,396.575928 
	C598.361572,421.230377 610.046204,448.942749 610.670959,480.596497 
	C611.228210,508.833954 602.335449,533.569275 582.061157,553.843567 
	C574.488708,561.415894 566.557190,568.439026 557.498596,574.205505 
	C554.327515,576.224182 552.139587,576.399109 549.390747,573.385010 
	C535.002441,557.608459 525.114685,539.576599 521.995422,518.316895 
	C520.575745,508.641205 521.866577,499.027893 525.750000,489.916718 
	C527.769165,485.179199 531.831665,482.256866 536.110901,480.164185 
	C546.883240,474.896271 558.282837,473.232361 570.120667,476.039886 
	C575.888306,477.407745 579.896851,480.845856 581.898315,486.543854 
	C589.602112,479.309875 588.523621,466.588745 579.772217,460.080658 
	C575.283569,456.742554 570.151733,454.682007 564.716858,453.661011 
	C559.174622,452.619843 555.808350,449.855316 554.585388,444.181580 
	C553.461975,438.969666 549.928040,435.491699 545.206116,433.139191 
	C538.438843,429.767670 531.276306,427.513580 523.857788,426.383575 
	C506.504456,423.740204 492.129639,415.798828 480.304596,402.953522 
	C478.892120,401.419159 477.757904,399.441528 475.564301,398.802734 
	C474.563690,399.477356 474.925323,400.369080 475.156219,401.076385 
	C480.520325,417.508820 474.362579,430.503418 463.491333,442.513855 
	C457.058563,449.620636 452.425415,458.111115 447.237213,466.840210 
	C452.189331,465.660126 455.447845,461.926422 461.749298,462.292236 
	C453.380707,468.086823 446.898285,473.953674 441.433472,480.797668 
	C436.013367,487.585663 431.606964,494.966309 429.620880,504.954102 
	C438.627533,498.825806 447.457489,495.056488 457.439117,494.918488 
	C458.105927,496.633087 456.873566,496.759094 455.724731,497.265900 
z" />
	<path fill="#1F5545" opacity="1.000000" stroke="none" d="
M534.633789,440.531433 
	C537.879211,439.818329 540.720520,439.894012 543.294495,441.201111 
	C546.195068,442.674103 547.963257,445.111603 546.904480,448.510162 
	C545.794495,452.072845 542.890198,452.729248 539.687683,451.873993 
	C534.315002,450.439240 530.560730,447.081451 528.248901,442.088074 
	C530.223267,440.053406 532.360840,440.960327 534.633789,440.531433 
z" />
</svg>